<svg width="365" height="365" viewBox="0 0 365 365" fill="none" xmlns="http://www.w3.org/2000/svg">
<g clip-path="url(#clip0_19_418)">
<path d="M31.9318 300V291.424L32.6678 293.408L23.0358 277.6H26.4598L34.5558 290.944H32.6998L40.8278 277.6H43.9958L34.3958 293.408L35.0998 291.424V300H31.9318ZM64.6938 300V277.6H67.8938V300H64.6938ZM92.52 300V277.6H95.72V297.216H107.848V300H92.52ZM138.345 300.256C135.401 300.256 133.086 299.413 131.401 297.728C129.716 296.043 128.873 293.579 128.873 290.336V277.6H132.073V290.208C132.073 292.704 132.617 294.528 133.705 295.68C134.814 296.832 136.372 297.408 138.377 297.408C140.404 297.408 141.961 296.832 143.049 295.68C144.158 294.528 144.713 292.704 144.713 290.208V277.6H147.817V290.336C147.817 293.579 146.974 296.043 145.289 297.728C143.625 299.413 141.31 300.256 138.345 300.256ZM172.298 300V277.6H174.922L189.738 296H188.362V277.6H191.562V300H188.938L174.122 281.6H175.498V300H172.298ZM242.7 300V277.6H245.9V297.216H258.028V300H242.7ZM276.228 300L286.372 277.6H289.54L299.716 300H296.356L287.3 279.392H288.58L279.524 300H276.228ZM280.548 294.4L281.412 291.84H294.02L294.948 294.4H280.548ZM320.977 300V277.6H331.025C333.607 277.6 335.591 278.123 336.977 279.168C338.364 280.192 339.057 281.6 339.057 283.392C339.057 284.608 338.78 285.632 338.225 286.464C337.692 287.296 336.967 287.936 336.049 288.384C335.132 288.832 334.14 289.056 333.073 289.056L333.649 288.096C334.929 288.096 336.06 288.32 337.041 288.768C338.023 289.216 338.801 289.877 339.377 290.752C339.953 291.605 340.241 292.672 340.241 293.952C340.241 295.872 339.516 297.365 338.065 298.432C336.636 299.477 334.503 300 331.665 300H320.977ZM324.177 297.408H331.537C333.308 297.408 334.663 297.109 335.601 296.512C336.54 295.915 337.009 294.976 337.009 293.696C337.009 292.395 336.54 291.445 335.601 290.848C334.663 290.251 333.308 289.952 331.537 289.952H323.889V287.36H330.737C332.359 287.36 333.617 287.061 334.513 286.464C335.409 285.867 335.857 284.971 335.857 283.776C335.857 282.581 335.409 281.685 334.513 281.088C333.617 280.491 332.359 280.192 330.737 280.192H324.177V297.408Z" fill="white"/>
<mask id="mask0_19_418" style="mask-type:luminance" maskUnits="userSpaceOnUse" x="103" y="48" width="162" height="194">
<mask id="mask1_19_418" style="mask-type:luminance" maskUnits="userSpaceOnUse" x="33" y="-24" width="300" height="300">
<path d="M333 -24H33V276H333V-24Z" fill="white"/>
<path d="M183 201C222.764 201 255 168.764 255 129C255 89.2355 222.764 57 183 57C143.236 57 111 89.2355 111 129C111 168.764 143.236 201 183 201Z" fill="black" stroke="black" stroke-width="14"/>
</mask>
<g mask="url(#mask1_19_418)">
<path d="M184 235C228.735 235 265 196.273 265 148.5C265 100.727 228.735 62 184 62C139.265 62 103 100.727 103 148.5C103 196.273 139.265 235 184 235Z" fill="white"/>
</g>
<path d="M183 102V222" stroke="white" stroke-width="17" stroke-linecap="round"/>
<path d="M183 193C220.555 193 251 160.541 251 120.5C251 80.4594 220.555 48 183 48C145.445 48 115 80.4594 115 120.5C115 160.541 145.445 193 183 193Z" fill="white"/>
<path d="M183 128.5C186.59 128.5 189.5 131.41 189.5 135V235C189.5 238.59 186.59 241.5 183 241.5C179.41 241.5 176.5 238.59 176.5 235V135C176.5 131.41 179.41 128.5 183 128.5Z" fill="black"/>
</mask>
<g mask="url(#mask0_19_418)">
<path d="M311 13H55V269H311V13Z" fill="white"/>
</g>
</g>
<defs>
<clipPath id="clip0_19_418">
<rect width="365" height="365" fill="white"/>
</clipPath>
</defs>
</svg>
