<svg width="512" height="256" viewBox="0 0 512 256" fill="none" xmlns="http://www.w3.org/2000/svg">
<g clip-path="url(#clip0_19_390)">
<mask id="mask0_19_390" style="mask-type:luminance" maskUnits="userSpaceOnUse" x="65" y="33" width="380" height="194">
<mask id="mask1_19_390" style="mask-type:luminance" maskUnits="userSpaceOnUse" x="-5" y="-39" width="300" height="300">
<path d="M295 -39H-5V261H295V-39Z" fill="white"/>
<path d="M145 186C184.764 186 217 153.764 217 114C217 74.2355 184.764 42 145 42C105.236 42 73 74.2355 73 114C73 153.764 105.236 186 145 186Z" fill="black" stroke="black" stroke-width="14"/>
</mask>
<g mask="url(#mask1_19_390)">
<path d="M146 220C190.735 220 227 181.273 227 133.5C227 85.7274 190.735 47 146 47C101.265 47 65 85.7274 65 133.5C65 181.273 101.265 220 146 220Z" fill="white"/>
</g>
<path d="M145 87V207" stroke="white" stroke-width="17" stroke-linecap="round"/>
<path d="M145 178C182.555 178 213 145.541 213 105.5C213 65.4594 182.555 33 145 33C107.445 33 77 65.4594 77 105.5C77 145.541 107.445 178 145 178Z" fill="white"/>
<path d="M145 120V220" stroke="black" stroke-width="13" stroke-linecap="round"/>
<path d="M284.897 125V116.424L285.633 118.408L276.001 102.6H279.425L287.521 115.944H285.665L293.793 102.6H296.961L287.361 118.408L288.065 116.424V125H284.897ZM317.659 125V102.6H320.859V125H317.659ZM345.485 125V102.6H348.685V122.216H360.813V125H345.485ZM391.31 125.256C388.366 125.256 386.051 124.413 384.366 122.728C382.681 121.043 381.838 118.579 381.838 115.336V102.6H385.038V115.208C385.038 117.704 385.582 119.528 386.67 120.68C387.779 121.832 389.337 122.408 391.342 122.408C393.369 122.408 394.926 121.832 396.014 120.68C397.123 119.528 397.678 117.704 397.678 115.208V102.6H400.782V115.336C400.782 118.579 399.939 121.043 398.254 122.728C396.59 124.413 394.275 125.256 391.31 125.256ZM425.262 125V102.6H427.886L442.702 121H441.326V102.6H444.526V125H441.902L427.086 106.6H428.462V125H425.262ZM314.112 174V151.6H317.312V171.216H329.44V174H314.112ZM347.64 174L357.784 151.6H360.952L371.128 174H367.768L358.712 153.392H359.992L350.936 174H347.64ZM351.96 168.4L352.824 165.84H365.432L366.36 168.4H351.96ZM392.389 174V151.6H402.437C405.019 151.6 407.003 152.123 408.389 153.168C409.776 154.192 410.469 155.6 410.469 157.392C410.469 158.608 410.192 159.632 409.637 160.464C409.104 161.296 408.379 161.936 407.461 162.384C406.544 162.832 405.552 163.056 404.485 163.056L405.061 162.096C406.341 162.096 407.472 162.32 408.453 162.768C409.435 163.216 410.213 163.877 410.789 164.752C411.365 165.605 411.653 166.672 411.653 167.952C411.653 169.872 410.928 171.365 409.477 172.432C408.048 173.477 405.915 174 403.077 174H392.389ZM395.589 171.408H402.949C404.72 171.408 406.075 171.109 407.013 170.512C407.952 169.915 408.421 168.976 408.421 167.696C408.421 166.395 407.952 165.445 407.013 164.848C406.075 164.251 404.72 163.952 402.949 163.952H395.301V161.36H402.149C403.771 161.36 405.029 161.061 405.925 160.464C406.821 159.867 407.269 158.971 407.269 157.776C407.269 156.581 406.821 155.685 405.925 155.088C405.029 154.491 403.771 154.192 402.149 154.192H395.589V171.408Z" fill="white"/>
</mask>
<g mask="url(#mask0_19_390)">
<path d="M512 0H0V256H512V0Z" fill="#070707"/>
</g>
</g>
<defs>
<clipPath id="clip0_19_390">
<rect width="512" height="256" fill="white"/>
</clipPath>
</defs>
</svg>
